<svg id="Layer_1" data-name="Layer 1" xmlns="http://www.w3.org/2000/svg" xmlns:xlink="http://www.w3.org/1999/xlink" viewBox="0 0 80 80"><defs><style>.cls-1{fill:url(#linear-gradient);}.cls-2,.cls-4{fill:#fff;}.cls-2{opacity:0.3;}.cls-3{opacity:0.6;}</style><linearGradient id="linear-gradient" x1="39.92" y1="81" x2="39.92" y2="-5.41" gradientUnits="userSpaceOnUse"><stop offset="0" stop-color="#1e66f0"/><stop offset="1" stop-color="#1bd1fe"/></linearGradient></defs><title>Countdown_Timer copy 8</title><rect class="cls-1" x="-0.08" width="80" height="80" rx="17.24"/><rect class="cls-2" x="19.78" y="30.09" width="40" height="29.91"/><g class="cls-3"><polygon class="cls-4" points="59.78 30.09 19.78 30.09 19.78 20 52.84 20 59.78 27.18 59.78 30.09"/></g><path class="cls-4" d="M32.24,48.22a7,7,0,0,1,2.53-2.7A18.91,18.91,0,0,0,37,43.74a2.6,2.6,0,0,0,.78-1.82,2,2,0,0,0-.45-1.35A1.56,1.56,0,0,0,36.06,40a1.58,1.58,0,0,0-1.56.86,4.21,4.21,0,0,0-.28,1.56H31.79a6.05,6.05,0,0,1,.59-2.63,3.66,3.66,0,0,1,3.56-1.9A4.51,4.51,0,0,1,39.16,39a3.84,3.84,0,0,1,1.2,3,4.06,4.06,0,0,1-.85,2.52,8.49,8.49,0,0,1-1.82,1.62l-1,.72q-.93.66-1.29,1a2.81,2.81,0,0,0-.58.7h5.56v2.2H31.65A5.9,5.9,0,0,1,32.24,48.22Z"/><path class="cls-4" d="M42.34,41.93v-1.7A11.84,11.84,0,0,0,44,40.07a2.32,2.32,0,0,0,1.23-.67A2.44,2.44,0,0,0,45.81,38h2.1V50.72H45.34V41.93Z"/><path class="cls-4" d="M57.78,16a6,6,0,1,0,6,6A6,6,0,0,0,57.78,16Zm2.5,6.5h-2v2h-1v-2h-2v-1h2v-2h1v2h2Z"/></svg>