<svg id="Layer_1" data-name="Layer 1" xmlns="http://www.w3.org/2000/svg" xmlns:xlink="http://www.w3.org/1999/xlink" viewBox="0 0 80 80"><defs><style>.cls-1{fill:url(#linear-gradient);}.cls-2{opacity:0.5;}.cls-3{fill:#fff;}</style><linearGradient id="linear-gradient" x1="40" y1="79.33" x2="40" y2="-0.67" gradientUnits="userSpaceOnUse"><stop offset="0" stop-color="#1e66f0"/><stop offset="1" stop-color="#1bd1fe"/></linearGradient></defs><title>Text_Cleaner copy 2</title><rect class="cls-1" width="80" height="80" rx="17.24"/><g class="cls-2"><rect class="cls-3" x="15.5" y="35.95" width="33" height="8.1"/><polygon class="cls-3" points="53.5 30.95 10.5 30.95 10.5 49.05 53.5 49.05 53.5 30.95 53.5 30.95"/></g><path class="cls-3" d="M53.5,31v18.1h16V31Zm6.44,12.28h0a.86.86,0,0,1,0-1.21l2-2-2-2a.86.86,0,0,1,0-1.21h0a.86.86,0,0,1,1.21,0L64.37,40l-3.22,3.23A.86.86,0,0,1,59.94,43.23Z"/></svg>