<svg id="Layer_1" data-name="Layer 1" xmlns="http://www.w3.org/2000/svg" xmlns:xlink="http://www.w3.org/1999/xlink" viewBox="0 0 80 80"><defs><style>.cls-1{fill:url(#linear-gradient);}.cls-2,.cls-3,.cls-4{fill:#fff;}.cls-3{opacity:0.2;}.cls-4{opacity:0.5;}</style><linearGradient id="linear-gradient" x1="40" y1="79.33" x2="40" y2="-0.67" gradientUnits="userSpaceOnUse"><stop offset="0" stop-color="#1e66f0"/><stop offset="1" stop-color="#1bd1fe"/></linearGradient></defs><title>Text_Cleaner copy 10</title><rect class="cls-1" width="80" height="80" rx="17.24"/><path class="cls-2" d="M61.89,26.15A4.41,4.41,0,0,0,63,23.24a4.46,4.46,0,0,0-4.46-4.46,4.41,4.41,0,0,0-2.91,1.11l0,0L46.5,29l6.31,6.31,8.88-8.88v0l.21-.21Z"/><rect class="cls-3" x="27.08" y="44.17" width="17.17" height="3.77" transform="translate(-22.12 38.71) rotate(-45)"/><polygon class="cls-4" points="50.96 37.01 49.17 35.22 30.93 53.46 28.26 50.79 46.5 32.55 44.71 30.76 26.47 49 26.18 52.96 24 55.44 26.18 57.62 28.7 55.56 32.72 55.25 32.72 55.25 32.72 55.25 50.96 37.01"/><rect class="cls-2" x="41.08" y="31.52" width="15.08" height="3.16" rx="1.58" transform="translate(37.64 -24.68) rotate(45)"/><path class="cls-3" d="M28,62.7a2.52,2.52,0,0,1-5,0C23,61.31,25.2,59,25.52,59S28,61.31,28,62.7Z"/></svg>