<svg id="Layer_1" data-name="Layer 1" xmlns="http://www.w3.org/2000/svg" xmlns:xlink="http://www.w3.org/1999/xlink" viewBox="0 0 80 80"><defs><style>.cls-1{fill:url(#linear-gradient);}.cls-2{opacity:0.08;}.cls-3{fill:none;}.cls-4,.cls-5{fill:#fff;}.cls-4{opacity:0.5;}</style><linearGradient id="linear-gradient" x1="40" y1="81" x2="40" y2="-5.41" gradientUnits="userSpaceOnUse"><stop offset="0" stop-color="#1e66f0"/><stop offset="1" stop-color="#1bd1fe"/></linearGradient></defs><title>Countdown_Timer copy</title><rect class="cls-1" width="80" height="80" rx="17.24"/><g class="cls-2"><path class="cls-3" d="M67.43,32.92l.86-.57a1.13,1.13,0,0,0,0-.25,2.08,2.08,0,1,0-2.77,1.95l1.82-1.11Z"/></g><path class="cls-4" d="M44,23.36V20.78h2.76V16.62H33.27v4.16H36v2.56h0a20.25,20.25,0,1,0,7.92,0Z"/><path class="cls-5" d="M40.08,43.26V26.48a16.89,16.89,0,0,1,13.74,7.05Z"/><path class="cls-5" d="M36,23.34h0a20.35,20.35,0,0,1,7.93,0V20.78h2.76V16.62H33.27v4.16H36Z"/></svg>