<svg id="Layer_1" data-name="Layer 1" xmlns="http://www.w3.org/2000/svg" xmlns:xlink="http://www.w3.org/1999/xlink" viewBox="0 0 80 80"><defs><style>.cls-1{fill:url(#linear-gradient);}.cls-2{opacity:0.5;}.cls-3{fill:#fff;}</style><linearGradient id="linear-gradient" x1="39.92" y1="81" x2="39.92" y2="-5.41" gradientUnits="userSpaceOnUse"><stop offset="0" stop-color="#1e66f0"/><stop offset="1" stop-color="#1bd1fe"/></linearGradient></defs><title>Countdown_Timer copy 2</title><rect class="cls-1" x="-0.08" width="80" height="80" rx="17.24"/><g class="cls-2"><rect class="cls-3" x="18.87" y="20" width="42.08" height="8.51"/></g><path class="cls-3" d="M18.87,28.51V60H61V28.51ZM28,53H22.87V47.9H28Zm0-7.73H22.87V40.17H28Zm0-7.72H22.87V32.45H28ZM35.18,53H30.1V47.9h5.08Zm0-7.73H30.1V40.17h5.08Zm0-7.72H30.1V32.45h5.08ZM42.41,53H37.34V47.9h5.07Zm0-7.73H37.34V40.17h5.07Zm0-7.72H37.34V32.45h5.07Zm7.23,7.72H44.57V40.17h5.07Zm0-7.72H44.57V32.45h5.07Zm7.23,7.72H51.8V40.17h5.07Zm0-7.72H51.8V32.45h5.07Z"/><g class="cls-2"><rect class="cls-3" x="22.87" y="32.45" width="5.08" height="5.08"/><polygon class="cls-3" points="27.95 32.45 22.87 32.45 22.87 37.53 27.95 37.53 27.95 32.45 27.95 32.45"/></g><g class="cls-2"><rect class="cls-3" x="30.1" y="32.45" width="5.08" height="5.08"/><polygon class="cls-3" points="35.18 32.45 30.11 32.45 30.11 37.53 35.18 37.53 35.18 32.45 35.18 32.45"/></g><g class="cls-2"><rect class="cls-3" x="37.34" y="32.45" width="5.08" height="5.08"/><polygon class="cls-3" points="42.41 32.45 37.34 32.45 37.34 37.53 42.41 37.53 42.41 32.45 42.41 32.45"/></g><g class="cls-2"><rect class="cls-3" x="44.57" y="32.45" width="5.08" height="5.08"/><polygon class="cls-3" points="49.64 32.45 44.56 32.45 44.56 37.53 49.64 37.53 49.64 32.45 49.64 32.45"/></g><g class="cls-2"><rect class="cls-3" x="51.8" y="32.45" width="5.08" height="5.08"/><polygon class="cls-3" points="56.87 32.45 51.8 32.45 51.8 37.53 56.87 37.53 56.87 32.45 56.87 32.45"/></g><g class="cls-2"><rect class="cls-3" x="44.57" y="40.17" width="5.08" height="5.08"/><polygon class="cls-3" points="49.64 40.17 44.56 40.17 44.56 45.25 49.64 45.25 49.64 40.17 49.64 40.17"/></g><g class="cls-2"><rect class="cls-3" x="51.8" y="40.17" width="5.08" height="5.08"/><polygon class="cls-3" points="56.87 40.17 51.8 40.17 51.8 45.25 56.87 45.25 56.87 40.17 56.87 40.17"/></g><g class="cls-2"><rect class="cls-3" x="22.87" y="40.17" width="5.08" height="5.08"/><polygon class="cls-3" points="27.95 40.17 22.87 40.17 22.87 45.25 27.95 45.25 27.95 40.17 27.95 40.17"/></g><g class="cls-2"><rect class="cls-3" x="30.1" y="40.17" width="5.08" height="5.08"/><polygon class="cls-3" points="35.18 40.17 30.11 40.17 30.11 45.25 35.18 45.25 35.18 40.17 35.18 40.17"/></g><g class="cls-2"><rect class="cls-3" x="37.34" y="40.17" width="5.08" height="5.08"/><polygon class="cls-3" points="42.41 40.17 37.34 40.17 37.34 45.25 42.41 45.25 42.41 40.17 42.41 40.17"/></g><g class="cls-2"><rect class="cls-3" x="22.87" y="47.9" width="5.08" height="5.08"/><polygon class="cls-3" points="27.95 47.9 22.87 47.9 22.87 52.98 27.95 52.98 27.95 47.9 27.95 47.9"/></g><g class="cls-2"><rect class="cls-3" x="30.1" y="47.9" width="5.08" height="5.08"/><polygon class="cls-3" points="35.18 47.9 30.11 47.9 30.11 52.98 35.18 52.98 35.18 47.9 35.18 47.9"/></g></svg>