<svg id="Layer_1" data-name="Layer 1" xmlns="http://www.w3.org/2000/svg" xmlns:xlink="http://www.w3.org/1999/xlink" viewBox="0 0 80 80"><defs><style>.cls-1{fill:url(#linear-gradient);}.cls-2,.cls-3{fill:#fff;}.cls-2{opacity:0.5;}</style><linearGradient id="linear-gradient" x1="40" y1="81" x2="40" y2="-5.41" gradientUnits="userSpaceOnUse"><stop offset="0" stop-color="#1e66f0"/><stop offset="1" stop-color="#1bd1fe"/></linearGradient></defs><title>Countdown_Timer copy 7</title><rect class="cls-1" width="80" height="80" rx="17.24"/><path class="cls-2" d="M54,32a6,6,0,0,1-6-6,5.92,5.92,0,0,1,1.29-3.7,20,20,0,1,0,8.41,8.41A5.92,5.92,0,0,1,54,32Z"/><polygon class="cls-3" points="49.38 39.96 34.8 31.54 34.8 48.38 49.38 39.96"/><path class="cls-3" d="M54,20a6,6,0,1,0,6,6A6,6,0,0,0,54,20Zm2.5,6.5h-2v2h-1v-2h-2v-1h2v-2h1v2h2Z"/></svg>