<svg id="Layer_1" data-name="Layer 1" xmlns="http://www.w3.org/2000/svg" xmlns:xlink="http://www.w3.org/1999/xlink" viewBox="0 0 80 80"><defs><style>.cls-1{fill:url(#linear-gradient);}.cls-2,.cls-3,.cls-4{fill:#fff;}.cls-2{opacity:0.6;}.cls-3{opacity:0.3;}</style><linearGradient id="linear-gradient" x1="40" y1="79.33" x2="40" y2="-0.67" gradientUnits="userSpaceOnUse"><stop offset="0" stop-color="#1e66f0"/><stop offset="1" stop-color="#1bd1fe"/></linearGradient></defs><title>Text_Cleaner copy 5</title><rect class="cls-1" width="80" height="80" rx="17.24"/><rect id="SVGID" class="cls-2" x="33.04" y="17.78" width="14.04" height="22.44" transform="translate(69.06 -11.06) rotate(90)"/><path class="cls-3" d="M24,17V39.72L40,50.37,56.1,39.64V17ZM51.28,36H28.84V22H51.28Z"/><polygon class="cls-4" points="56.09 35.51 56.09 39.64 40 50.37 24.02 39.72 24.02 35.42 21 37.7 21 63.03 59 63.03 59 37.7 56.09 35.51"/><polygon class="cls-4" points="38.41 29.34 32.42 36.02 38.67 36.02 41.7 32.58 38.41 29.34"/><polygon class="cls-4" points="46.59 27.02 38.67 36.02 51.28 36.02 51.28 32.35 46.59 27.02"/><circle class="cls-4" cx="33.85" cy="27.02" r="2.32"/></svg>