<svg id="Layer_1" data-name="Layer 1" xmlns="http://www.w3.org/2000/svg" xmlns:xlink="http://www.w3.org/1999/xlink" viewBox="0 0 80 80"><defs><style>.cls-1{fill:url(#linear-gradient);}.cls-2,.cls-3{fill:#fff;}.cls-2{opacity:0.5;}</style><linearGradient id="linear-gradient" x1="39.92" y1="81" x2="39.92" y2="-5.41" gradientUnits="userSpaceOnUse"><stop offset="0" stop-color="#1e66f0"/><stop offset="1" stop-color="#1bd1fe"/></linearGradient></defs><title>Countdown_Timer copy 9</title><rect class="cls-1" x="-0.08" width="80" height="80" rx="17.24"/><polygon class="cls-2" points="54.18 52.03 18.45 52.03 18.45 25.23 54.18 25.23 54.18 37.26 58.31 40.35 57 42.15 54.18 40.04 54.18 52.03"/><polygon class="cls-3" points="54.18 25.23 36.32 38.63 18.45 25.23 54.18 25.23"/><circle class="cls-3" cx="57.6" cy="26.42" r="0.82"/><circle class="cls-3" cx="62.82" cy="28.37" r="3.56"/><circle class="cls-3" cx="50.19" cy="36.34" r="0.82"/><path class="cls-2" d="M39.18,58.78l-1,1.29a.81.81,0,0,0,1.29,1l1-1.29Z"/><circle class="cls-3" cx="65.35" cy="25.29" r="0.81"/><rect class="cls-3" x="64.05" y="25.13" width="1.62" height="1.62" transform="translate(100.73 85.88) rotate(-142.7)"/><rect class="cls-3" x="53.05" y="25.18" width="1.64" height="12.46" transform="translate(29.55 -26.01) rotate(36.8)"/><rect class="cls-3" x="55.6" y="27.08" width="7.12" height="12.37" transform="translate(31.71 -28.81) rotate(36.8)"/><path class="cls-3" d="M39.41,59.65s-1.5-3.89,1.86-8.37l10-13.4L57,42.14s-5.9,8.38-10.06,13.44C42.83,60.94,39.41,59.65,39.41,59.65Z"/><rect class="cls-3" x="56.81" y="27.76" width="1.72" height="1.54" transform="translate(28.58 -28.86) rotate(36.8)"/></svg>