<svg id="Layer_1" data-name="Layer 1" xmlns="http://www.w3.org/2000/svg" xmlns:xlink="http://www.w3.org/1999/xlink" viewBox="0 0 80 80"><defs><style>.cls-1,.cls-6,.cls-7{fill:none;}.cls-2{fill:url(#linear-gradient);}.cls-3{opacity:0.5;}.cls-4{fill:#fff;}.cls-5{clip-path:url(#clip-path);}.cls-6,.cls-7{stroke:#fff;stroke-miterlimit:10;}.cls-6{stroke-width:3px;}.cls-7{stroke-width:5px;}</style><linearGradient id="linear-gradient" x1="40" y1="79.33" x2="40" y2="-0.67" gradientUnits="userSpaceOnUse"><stop offset="0" stop-color="#1e66f0"/><stop offset="1" stop-color="#1bd1fe"/></linearGradient><clipPath id="clip-path"><circle class="cls-1" cx="33.08" cy="32.28" r="15.65"/></clipPath></defs><title>Text_Cleaner copy 8</title><rect class="cls-2" width="80" height="80" rx="17.24"/><g class="cls-3"><g class="cls-3"><polygon class="cls-4" points="61.67 36.73 48.28 36.73 43.33 43.3 36.34 46.84 30.12 46.82 29.99 55.53 61.67 55.53 61.67 36.73"/></g><path class="cls-4" d="M60.57,33.25V54.36H31.09V48.83h5.72l.43-.22,7-3.53.45-.23.29-.41,4-5.66.29-.41.06-.51.52-4.62H60.57m2-2H48l-.73,6.4-4,5.65-7,3.54-7.24,0v9.54H62.57V31.25Z"/><rect class="cls-4" x="48.01" y="31.25" width="14.56" height="6.18"/></g><g class="cls-5"><g class="cls-3"><rect class="cls-4" x="26.64" y="34.94" width="24.78" height="13.5"/></g><path class="cls-4" d="M49.24,27.9V46.62H28V27.9H49.24m3-3H25V49.62H52.24V24.9Z"/><path class="cls-4" d="M25,24.9V36.25H52.24V24.9Zm5.43,7.67a2,2,0,1,1,2-2A2,2,0,0,1,30.42,32.57Z"/></g><circle class="cls-6" cx="33.09" cy="32.28" r="15.65" transform="translate(-1.17 63.33) rotate(-86.48)"/><line class="cls-6" x1="43.39" y1="44.13" x2="57.12" y2="59.66"/><line class="cls-7" x1="46.67" y1="47.84" x2="60.4" y2="63.37"/></svg>