<svg id="Layer_1" data-name="Layer 1" xmlns="http://www.w3.org/2000/svg" xmlns:xlink="http://www.w3.org/1999/xlink" viewBox="0 0 80 80"><defs><style>.cls-1{fill:url(#linear-gradient);}.cls-2{opacity:0.6;}.cls-3,.cls-4{fill:#fff;}.cls-3{opacity:0.5;}.cls-5{opacity:0.3;}.cls-6{opacity:0.75;}</style><linearGradient id="linear-gradient" x1="39.92" y1="81" x2="39.92" y2="-5.41" gradientUnits="userSpaceOnUse"><stop offset="0" stop-color="#1e66f0"/><stop offset="1" stop-color="#1bd1fe"/></linearGradient></defs><title>Countdown_Timer copy 5</title><rect class="cls-1" x="-0.08" width="80" height="80" rx="17.24"/><g class="cls-2"><polygon class="cls-3" points="56.59 52.59 50.79 52.59 50.79 35.46 23.24 35.46 23.24 27.58 56.59 27.58 56.59 52.59"/><polygon class="cls-4" points="33.28 35.46 33.74 34.89 34.23 35.46 33.28 35.46"/><polygon class="cls-4" points="50.79 44.34 54.51 48.14 54.51 50.5 50.79 50.5 50.79 44.34"/></g><rect class="cls-3" x="17.42" y="35.49" width="33.35" height="25.01"/><polygon class="cls-4" points="19.5 53.18 27.92 42.8 36.05 52.29 40.53 47.7 48.68 56.05 48.68 58.41 19.5 58.41 19.5 53.18"/><g class="cls-5"><g class="cls-6"><polygon class="cls-3" points="62.42 44.68 56.62 44.68 56.62 27.55 29.07 27.55 29.07 19.67 62.42 19.67 62.42 44.68"/><polygon class="cls-4" points="39.11 27.55 39.57 26.98 40.06 27.55 39.11 27.55"/><polygon class="cls-4" points="56.62 36.43 60.33 40.23 60.33 42.59 56.62 42.59 56.62 36.43"/></g></g></svg>