<svg id="Layer_1" data-name="Layer 1" xmlns="http://www.w3.org/2000/svg" xmlns:xlink="http://www.w3.org/1999/xlink" viewBox="0 0 80 80"><defs><style>.cls-1{fill:url(#linear-gradient);}.cls-2,.cls-4{opacity:0.5;}.cls-3,.cls-4{fill:#fff;}</style><linearGradient id="linear-gradient" x1="39.92" y1="81" x2="39.92" y2="-5.41" gradientUnits="userSpaceOnUse"><stop offset="0" stop-color="#1e66f0"/><stop offset="1" stop-color="#1bd1fe"/></linearGradient></defs><title>Countdown_Timer copy 10</title><rect class="cls-1" x="-0.08" width="80" height="80" rx="17.24"/><g class="cls-2"><rect class="cls-3" x="14.93" y="20.03" width="50.1" height="15.32"/></g><rect class="cls-3" x="43.3" y="24.76" width="16" height="21"/><path class="cls-3" d="M63,51.3H16.88A2.85,2.85,0,0,1,14,48.45V22.06a2.84,2.84,0,0,1,2.84-2.84H63a2.85,2.85,0,0,1,2.85,2.84V48.45A2.86,2.86,0,0,1,63,51.3ZM16.88,21a1.08,1.08,0,0,0-1.08,1.08V48.45a1.08,1.08,0,0,0,1.08,1.09H63A1.09,1.09,0,0,0,64,48.45V22.06A1.09,1.09,0,0,0,63,21Z"/><polygon class="cls-4" points="50.35 58.16 45.63 58.16 44.74 50.32 43.87 49.54 35.97 49.54 35.09 50.32 34.2 58.16 29.48 58.16 29.48 59.9 34.98 59.9 34.98 59.91 44.85 59.91 44.86 59.9 50.35 59.9 50.35 58.16"/><g class="cls-2"><rect class="cls-3" x="20.3" y="38.28" width="20" height="1.76"/><rect class="cls-3" x="20.3" y="42.48" width="20" height="1.76"/></g></svg>