<svg id="Layer_1" data-name="Layer 1" xmlns="http://www.w3.org/2000/svg" xmlns:xlink="http://www.w3.org/1999/xlink" viewBox="0 0 80 80"><defs><style>.cls-1{fill:url(#linear-gradient);}.cls-2,.cls-3{fill:#fff;}.cls-2{opacity:0.5;}</style><linearGradient id="linear-gradient" x1="40" y1="79.33" x2="40" y2="-0.67" gradientUnits="userSpaceOnUse"><stop offset="0" stop-color="#1e66f0"/><stop offset="1" stop-color="#1bd1fe"/></linearGradient></defs><title>Text_Cleaner copy 6</title><rect class="cls-1" width="80" height="80" rx="17.24"/><path class="cls-2" d="M51.6,35.64V27.71A8.57,8.57,0,0,0,43,19.14H37a8.57,8.57,0,0,0-8.57,8.57V31h4.17V27.71a4.41,4.41,0,0,1,4.4-4.4H43a4.41,4.41,0,0,1,4.4,4.4v7.93Z"/><path class="cls-3" d="M24,31V59.14H56V31ZM42.11,45.55v6.26H37.6V45.35a4,4,0,0,1-1-5.13A3.26,3.26,0,0,1,38,38.78a4,4,0,0,1,6,3.45A3.93,3.93,0,0,1,42.11,45.55Z"/></svg>