<svg id="Layer_1" data-name="Layer 1" xmlns="http://www.w3.org/2000/svg" xmlns:xlink="http://www.w3.org/1999/xlink" viewBox="0 0 80 80"><defs><style>.cls-1{fill:url(#linear-gradient);}.cls-2{opacity:0.6;}.cls-3{fill:#fff;}.cls-4{opacity:0.3;}</style><linearGradient id="linear-gradient" x1="40" y1="79.33" x2="40" y2="-0.67" gradientUnits="userSpaceOnUse"><stop offset="0" stop-color="#1e66f0"/><stop offset="1" stop-color="#1bd1fe"/></linearGradient></defs><title>Text_Cleaner copy 7</title><rect class="cls-1" width="80" height="80" rx="17.24"/><g class="cls-2"><rect class="cls-3" x="16.58" y="37.86" width="46.84" height="19.21"/></g><g class="cls-4"><rect class="cls-3" x="16.58" y="28.59" width="46.84" height="9.27"/></g><path class="cls-3" d="M39.06,37.86v0a3.49,3.49,0,0,0-3.51-3.68A3.54,3.54,0,0,0,32,37.86v0a3.49,3.49,0,0,0,3.51,3.68A3.55,3.55,0,0,0,39.06,37.86Zm-4.88,0v0c0-1,.46-1.79,1.33-1.79s1.37.85,1.37,1.83v0c0,.93-.45,1.79-1.33,1.79S34.18,38.83,34.18,37.86Z"/><polygon class="cls-3" points="44.07 34.3 33.45 48.85 35.93 48.85 46.55 34.3 44.07 34.3"/><path class="cls-3" d="M44.49,41.58a3.54,3.54,0,0,0-3.55,3.72v0A3.49,3.49,0,0,0,44.45,49,3.55,3.55,0,0,0,48,45.3v0A3.49,3.49,0,0,0,44.49,41.58Zm1.33,3.76c0,.93-.46,1.79-1.33,1.79s-1.37-.86-1.37-1.83v0c0-1,.45-1.79,1.33-1.79s1.37.85,1.37,1.83Z"/><path class="cls-3" d="M16.58,22.93v5.66H63.42V22.93Zm2.82,3.83a1,1,0,1,1,1-1A1,1,0,0,1,19.4,26.76Z"/></svg>